<?xml version="1.0" standalone="no"?>
<!DOCTYPE svg PUBLIC "-//W3C//DTD SVG 20010904//EN"
 "http://www.w3.org/TR/2001/REC-SVG-20010904/DTD/svg10.dtd">
<svg version="1.0" xmlns="http://www.w3.org/2000/svg"
 width="100.000000pt" height="100.000000pt" viewBox="0 0 100.000000 100.000000"
 preserveAspectRatio="xMidYMid meet">

<g transform="translate(0.000000,100.000000) scale(0.100000,-0.100000)"
fill="#000000" stroke="none">
<path d="M432 949 c-47 -14 -109 -80 -122 -129 -15 -55 -10 -115 10 -115 11 0
17 16 21 58 11 100 66 152 159 152 93 0 148 -52 159 -152 4 -42 10 -58 21 -58
25 0 19 114 -10 159 -46 75 -150 112 -238 85z"/>
<path d="M288 660 c-10 -16 -24 -20 -66 -20 -62 0 -57 9 -97 -169 -17 -78 -23
-126 -17 -130 6 -4 3 -51 -9 -131 -11 -69 -17 -131 -14 -137 2 -7 20 -13 40
-13 19 0 35 -4 35 -10 0 -5 14 -10 30 -10 17 0 30 5 30 10 0 6 100 10 280 10
180 0 280 -4 280 -10 0 -5 14 -10 30 -10 17 0 30 5 30 10 0 6 16 10 35 10 20
0 38 6 40 13 3 6 -3 68 -14 137 -12 80 -15 127 -9 131 6 4 0 52 -17 130 -40
178 -35 169 -97 169 -42 0 -56 4 -66 20 -7 11 -21 20 -32 20 -11 0 -25 -9 -32
-20 -12 -18 -24 -20 -148 -20 -124 0 -136 2 -148 20 -7 11 -21 20 -32 20 -11
0 -25 -9 -32 -20z m543 -175 c22 -101 23 -115 10 -119 -185 -54 -480 -57 -662
-6 l-35 10 25 115 26 115 305 0 305 0 26 -115z m-502 -191 c81 -12 119 -22
133 -36 23 -23 53 -23 76 0 14 14 53 24 138 37 187 28 166 38 185 -87 l16
-108 -377 0 -376 0 15 111 15 111 30 -6 c17 -2 82 -12 145 -22z"/>
</g>
</svg>
